<svg xmlns="http://www.w3.org/2000/svg" width="512" height="512" viewBox="0 0 512 512">
  <rect width="512" height="512" fill="#0a0a0b"/>
  <svg x="76" y="176" width="360" height="161" viewBox="247 337 289 129" preserveAspectRatio="xMidYMid meet">
    <g fill="#ffffff" fill-opacity="1"><g transform="translate(343.210763, 431.580848)"><g><path d="M 3.640625 -46.46875 L 28.21875 -86.40625 L 52.984375 -46.46875 L 39.015625 -46.46875 L 28.21875 -63.828125 L 17.609375 -46.46875 Z M 3.640625 -46.46875 "/></g></g></g>
    <g fill="#ffffff" fill-opacity="1"><g transform="translate(251.98332, 456.400339)"><g><path d="M 31.296875 1.15625 C 26.585938 1.15625 22.476562 0.324219 18.96875 -1.328125 C 15.457031 -2.984375 12.546875 -5.226562 10.234375 -8.0625 C 7.921875 -10.894531 6.1875 -14.101562 5.03125 -17.6875 C 3.875 -21.28125 3.296875 -24.984375 3.296875 -28.796875 C 3.296875 -32.578125 3.863281 -36.269531 5 -39.875 C 6.132812 -43.476562 7.847656 -46.71875 10.140625 -49.59375 C 12.441406 -52.46875 15.347656 -54.753906 18.859375 -56.453125 C 22.367188 -58.148438 26.472656 -59 31.171875 -59 C 36.921875 -59 41.972656 -57.585938 46.328125 -54.765625 C 50.679688 -51.953125 53.957031 -47.675781 56.15625 -41.9375 L 42.75 -36.734375 C 42.007812 -39.503906 40.617188 -41.773438 38.578125 -43.546875 C 36.535156 -45.328125 34.066406 -46.21875 31.171875 -46.21875 C 28.742188 -46.21875 26.671875 -45.722656 24.953125 -44.734375 C 23.242188 -43.753906 21.847656 -42.425781 20.765625 -40.75 C 19.679688 -39.070312 18.890625 -37.203125 18.390625 -35.140625 C 17.890625 -33.078125 17.640625 -30.960938 17.640625 -28.796875 C 17.640625 -26.597656 17.890625 -24.476562 18.390625 -22.4375 C 18.890625 -20.394531 19.671875 -18.550781 20.734375 -16.90625 C 21.796875 -15.269531 23.179688 -13.976562 24.890625 -13.03125 C 26.609375 -12.09375 28.703125 -11.625 31.171875 -11.625 C 34.023438 -11.625 36.484375 -12.476562 38.546875 -14.1875 C 40.609375 -15.90625 42.007812 -18.117188 42.75 -20.828125 L 55.578125 -15.96875 C 54.304688 -12.375 52.492188 -9.296875 50.140625 -6.734375 C 47.796875 -4.171875 45.019531 -2.210938 41.8125 -0.859375 C 38.613281 0.480469 35.109375 1.15625 31.296875 1.15625 Z M 31.296875 1.15625 "/></g></g></g>
    <g fill="#ffffff" fill-opacity="1"><g transform="translate(310.053112, 456.400339)"><g><path d="M 24.171875 1.15625 C 20.242188 1.15625 16.6875 0.425781 13.5 -1.03125 C 10.320312 -2.5 7.804688 -4.648438 5.953125 -7.484375 C 4.109375 -10.316406 3.1875 -13.738281 3.1875 -17.75 C 3.1875 -20.875 3.769531 -23.503906 4.9375 -25.640625 C 6.113281 -27.785156 7.742188 -29.503906 9.828125 -30.796875 C 11.910156 -32.085938 14.347656 -33.019531 17.140625 -33.59375 C 19.941406 -34.175781 22.960938 -34.46875 26.203125 -34.46875 L 41.234375 -34.46875 C 41.234375 -38.132812 40.269531 -41.082031 38.34375 -43.3125 C 36.414062 -45.550781 33.582031 -46.671875 29.84375 -46.671875 C 27.644531 -46.671875 25.664062 -46.285156 23.90625 -45.515625 C 22.15625 -44.742188 20.65625 -43.738281 19.40625 -42.5 C 18.15625 -41.269531 17.101562 -39.941406 16.25 -38.515625 L 5.4375 -46.328125 C 7.289062 -48.867188 9.375 -51.082031 11.6875 -52.96875 C 14 -54.863281 16.640625 -56.34375 19.609375 -57.40625 C 22.578125 -58.46875 25.953125 -59 29.734375 -59 C 34.972656 -59 39.453125 -57.984375 43.171875 -55.953125 C 46.890625 -53.929688 49.742188 -51.117188 51.734375 -47.515625 C 53.722656 -43.910156 54.71875 -39.753906 54.71875 -35.046875 L 54.71875 0 L 43.09375 0 L 42.171875 -8.265625 C 39.703125 -4.640625 36.941406 -2.160156 33.890625 -0.828125 C 30.847656 0.492188 27.609375 1.15625 24.171875 1.15625 Z M 26.203125 -10.765625 C 28.203125 -10.765625 30.097656 -11.117188 31.890625 -11.828125 C 33.691406 -12.535156 35.273438 -13.523438 36.640625 -14.796875 C 38.003906 -16.078125 39.101562 -17.523438 39.9375 -19.140625 C 40.769531 -20.765625 41.203125 -22.484375 41.234375 -24.296875 L 27.015625 -24.296875 C 23.804688 -24.296875 21.441406 -23.582031 19.921875 -22.15625 C 18.398438 -20.726562 17.640625 -19.109375 17.640625 -17.296875 C 17.640625 -15.398438 18.378906 -13.835938 19.859375 -12.609375 C 21.347656 -11.378906 23.460938 -10.765625 26.203125 -10.765625 Z M 26.203125 -10.765625 "/></g></g></g>
    <g fill="#ffffff" fill-opacity="1"><g transform="translate(371.419693, 456.400339)"><g><path d="M 8.390625 0 L 8.390625 -57.78125 L 22.390625 -57.78125 L 22.390625 -51.078125 C 23.929688 -52.960938 25.664062 -54.484375 27.59375 -55.640625 C 29.519531 -56.796875 31.503906 -57.644531 33.546875 -58.1875 C 35.585938 -58.726562 37.554688 -59 39.453125 -59 C 43.222656 -59 46.4375 -58.3125 49.09375 -56.9375 C 51.757812 -55.570312 53.921875 -53.722656 55.578125 -51.390625 C 57.234375 -49.054688 58.445312 -46.441406 59.21875 -43.546875 C 60 -40.660156 60.390625 -37.710938 60.390625 -34.703125 L 60.390625 0 L 46.4375 0 L 46.4375 -32.90625 C 46.4375 -35.457031 46.019531 -37.710938 45.1875 -39.671875 C 44.363281 -41.640625 43.132812 -43.179688 41.5 -44.296875 C 39.863281 -45.421875 37.828125 -45.984375 35.390625 -45.984375 C 31.421875 -45.984375 28.257812 -44.851562 25.90625 -42.59375 C 23.5625 -40.34375 22.390625 -36.691406 22.390625 -31.640625 L 22.390625 0 Z M 8.390625 0 "/></g></g></g>
    <g fill="#ffffff" fill-opacity="1"><g transform="translate(284.629298, 431.580848)"><g><path d="M 3.640625 -46.46875 L 28.21875 -86.40625 L 52.984375 -46.46875 L 39.015625 -46.46875 L 28.21875 -63.828125 L 17.609375 -46.46875 Z M 3.640625 -46.46875 "/></g></g></g>
    <g fill="#ffffff" fill-opacity="1"><g transform="translate(435.666632, 454.501814)"><g><path d="M 5.796875 -68.449219 L 5.796875 -83.625 L 24.855469 -83.625 L 24.855469 -66.234375 L 5.796875 -66.234375 Z M 10.222656 -68.449219 L 8.007812 -68.449219 L 8.007812 -70.660156 L 22.644531 -70.660156 L 22.644531 -68.449219 L 20.429688 -68.449219 L 20.429688 -81.410156 L 22.644531 -81.410156 L 22.644531 -79.199219 L 8.007812 -79.199219 L 8.007812 -81.410156 L 10.222656 -81.410156 Z M 6.140625 0 L 6.140625 -59.769531 L 24.511719 -59.769531 L 24.511719 2.210938 L 6.140625 2.210938 Z M 10.566406 0 L 8.355469 0 L 8.355469 -2.210938 L 22.296875 -2.210938 L 22.296875 0 L 20.085938 0 L 20.085938 -57.558594 L 22.296875 -57.558594 L 22.296875 -55.347656 L 8.355469 -55.347656 L 8.355469 -57.558594 L 10.566406 -57.558594 Z M 10.566406 0 "/></g></g></g>
    <g fill="#ffffff" fill-opacity="1"><g transform="translate(466.31796, 454.501814)"><g><path d="M 44.710938 -83.625 L 61.210938 -83.625 L 61.210938 2.210938 L 43.914062 2.210938 L 43.085938 -6.238281 L 45.285156 -6.453125 L 47.0625 -5.132812 C 44.816406 -2.109375 42.011719 0.0742188 38.648438 1.421875 C 35.40625 2.714844 32.050781 3.363281 28.578125 3.363281 C 24.1875 3.363281 20.28125 2.488281 16.851562 0.730469 C 13.441406 -1.015625 10.578125 -3.417969 8.261719 -6.46875 C 5.988281 -9.46875 4.277344 -12.890625 3.125 -16.738281 C 1.984375 -20.535156 1.417969 -24.558594 1.417969 -28.808594 C 1.417969 -33.019531 1.984375 -37.023438 3.125 -40.820312 C 4.273438 -44.664062 5.976562 -48.085938 8.226562 -51.082031 C 10.519531 -54.132812 13.351562 -56.539062 16.71875 -58.308594 C 20.113281 -60.089844 23.988281 -60.980469 28.347656 -60.980469 C 31.601562 -60.980469 34.832031 -60.398438 38.035156 -59.234375 C 41.378906 -58.015625 44.183594 -56 46.4375 -53.179688 L 44.710938 -51.796875 L 42.496094 -51.796875 L 42.496094 -83.625 Z M 44.710938 -79.199219 L 44.710938 -81.410156 L 46.921875 -81.410156 L 46.921875 -45.488281 L 42.980469 -50.414062 C 41.242188 -52.589844 39.089844 -54.140625 36.519531 -55.074219 C 33.808594 -56.0625 31.082031 -56.554688 28.347656 -56.554688 C 24.714844 -56.554688 21.523438 -55.832031 18.773438 -54.390625 C 15.996094 -52.929688 13.660156 -50.941406 11.765625 -48.421875 C 9.828125 -45.847656 8.363281 -42.890625 7.363281 -39.550781 C 6.347656 -36.167969 5.84375 -32.585938 5.84375 -28.808594 C 5.84375 -24.992188 6.347656 -21.390625 7.363281 -18.007812 C 8.363281 -14.671875 9.835938 -11.714844 11.789062 -9.144531 C 13.695312 -6.628906 16.058594 -4.648438 18.871094 -3.207031 C 21.664062 -1.777344 24.898438 -1.058594 28.578125 -1.058594 C 31.480469 -1.058594 34.289062 -1.601562 37.003906 -2.6875 C 39.59375 -3.722656 41.761719 -5.417969 43.511719 -7.773438 L 46.929688 -12.375 L 48.121094 -0.214844 L 45.921875 0 L 45.921875 -2.210938 L 59 -2.210938 L 59 0 L 56.785156 0 L 56.785156 -81.410156 L 59 -81.410156 L 59 -79.199219 Z M 31.976562 -13.792969 C 34.71875 -13.792969 36.921875 -14.40625 38.585938 -15.636719 C 40.289062 -16.894531 41.554688 -18.617188 42.382812 -20.804688 C 43.265625 -23.144531 43.707031 -25.8125 43.707031 -28.808594 C 43.707031 -31.765625 43.265625 -34.414062 42.382812 -36.753906 C 41.554688 -38.945312 40.285156 -40.679688 38.574219 -41.957031 C 36.910156 -43.203125 34.714844 -43.824219 31.976562 -43.824219 C 29.238281 -43.824219 27.027344 -43.199219 25.34375 -41.953125 C 23.613281 -40.671875 22.328125 -38.925781 21.484375 -36.71875 C 20.582031 -34.359375 20.132812 -31.722656 20.132812 -28.808594 C 20.132812 -25.855469 20.582031 -23.199219 21.484375 -20.839844 C 22.328125 -18.636719 23.609375 -16.902344 25.332031 -15.640625 C 27.015625 -14.410156 29.230469 -13.792969 31.976562 -13.792969 Z M 31.976562 -9.367188 C 28.269531 -9.367188 25.183594 -10.269531 22.71875 -12.070312 C 20.292969 -13.84375 18.503906 -16.242188 17.351562 -19.261719 C 16.253906 -22.125 15.707031 -25.308594 15.707031 -28.808594 C 15.707031 -32.269531 16.253906 -35.433594 17.351562 -38.296875 C 18.503906 -41.3125 20.289062 -43.714844 22.707031 -45.507812 C 25.175781 -47.335938 28.261719 -48.246094 31.976562 -48.246094 C 35.695312 -48.246094 38.777344 -47.332031 41.222656 -45.503906 C 43.625 -43.707031 45.390625 -41.3125 46.519531 -38.320312 C 47.59375 -35.472656 48.132812 -32.304688 48.132812 -28.808594 C 48.132812 -25.273438 47.59375 -22.085938 46.519531 -19.238281 C 45.386719 -16.238281 43.617188 -13.851562 41.214844 -12.078125 C 38.769531 -10.269531 35.6875 -9.367188 31.976562 -9.367188 Z M 31.976562 -9.367188 "/></g></g></g>
  </svg>
</svg>
